<svg width="61" height="26" viewBox="0 0 61 26" fill="none" xmlns="http://www.w3.org/2000/svg">
<path d="M60.9986 8.09978C60.9986 10.9262 59.335 13.055 56.7591 13.055C55.6321 13.055 54.6662 12.572 53.9506 11.6418V16.3287H51.4642V3.32342H53.7539V4.71876C54.4873 3.69909 55.5427 3.14453 56.7591 3.14453C59.335 3.14453 60.9986 5.29121 60.9986 8.09978ZM58.4406 8.09978C58.4406 6.31088 57.421 5.34488 56.2046 5.34488C54.9882 5.34488 53.9685 6.29299 53.9685 8.09978C53.9685 9.90657 54.9882 10.8368 56.2046 10.8368C57.421 10.8368 58.4406 9.92446 58.4406 8.09978Z" fill="#2F2F2F"/>
<path d="M45.2541 13.0371C42.392 13.0371 40.478 11.0515 40.478 8.064C40.478 5.21965 42.4636 3.14453 45.2184 3.14453C48.2415 3.14453 50.245 5.59532 49.7978 8.70801H43.0181C43.1791 10.2643 43.9304 11.123 45.2005 11.123C46.2917 11.123 47.0251 10.5863 47.3113 9.63823H49.7799C49.2432 11.8028 47.5796 13.0371 45.2541 13.0371ZM45.1647 4.96921C44.002 4.96921 43.2685 5.72055 43.0539 7.13377H47.1682C47.0966 5.80999 46.3453 4.96921 45.1647 4.96921Z" fill="#2F2F2F"/>
<path d="M35.0685 13.0371C32.2064 13.0371 30.2924 11.0515 30.2924 8.064C30.2924 5.21965 32.278 3.14453 35.0328 3.14453C38.0559 3.14453 40.0594 5.59532 39.6122 8.70801H32.8325C32.9935 10.2643 33.7448 11.123 35.0149 11.123C36.1061 11.123 36.8395 10.5863 37.1257 9.63823H39.5943C39.0576 11.8028 37.394 13.0371 35.0685 13.0371ZM34.9791 4.96921C33.8164 4.96921 33.0829 5.72055 32.8683 7.13377H36.9826C36.911 5.80999 36.1597 4.96921 34.9791 4.96921Z" fill="#2F2F2F"/>
<path d="M19.1653 8.09967C19.1653 5.27321 20.8289 3.14442 23.4048 3.14442C24.5497 3.14442 25.5156 3.64531 26.2312 4.55765V0.0317383H28.6997V12.876H26.4279V11.4986C25.6766 12.5004 24.6391 13.0549 23.4048 13.0549C20.8289 13.0549 19.1653 10.8904 19.1653 8.09967ZM21.7233 8.09967C21.7233 9.88857 22.7429 10.8367 23.9593 10.8367C25.1936 10.8367 26.2133 9.87068 26.2133 8.06389C26.2133 6.25711 25.1757 5.34477 23.9593 5.34477C22.7429 5.34477 21.7233 6.27499 21.7233 8.09967Z" fill="#2F2F2F"/>
<path d="M45.2518 25.0498C42.3896 25.0498 40.4756 23.0642 40.4756 20.0767C40.4756 17.2323 42.4612 15.1572 45.216 15.1572C48.2391 15.1572 50.2426 17.608 49.7954 20.7207H43.0157C43.1767 22.277 43.928 23.1357 45.1981 23.1357C46.2893 23.1357 47.0227 22.599 47.3089 21.6509H49.7775C49.2408 23.8155 47.5772 25.0498 45.2518 25.0498ZM45.1623 16.9819C43.9996 16.9819 43.2662 17.7332 43.0515 19.1465H47.1658C47.0943 17.8227 46.3429 16.9819 45.1623 16.9819Z" fill="#2F2F2F"/>
<path d="M39.4032 21.8298C39.4032 23.8334 37.8827 25.0677 35.1637 25.0677C32.4446 25.0677 30.9241 23.7618 30.7274 21.633H33.1065C33.1244 22.6169 33.9651 23.243 35.1994 23.243C36.1654 23.243 36.8988 22.9389 36.8988 22.2592C36.8988 21.6509 36.5053 21.4005 35.593 21.2216L33.8757 20.8996C32.1584 20.5955 31.1209 19.6474 31.1209 18.1626C31.1209 16.3916 32.6414 15.1572 35.0205 15.1572C37.4176 15.1572 39.0633 16.4273 39.2422 18.4846H36.863C36.7736 17.5544 36.076 16.9819 35.0205 16.9819C34.1082 16.9819 33.5 17.3218 33.5 17.93C33.5 18.5025 33.8936 18.735 34.7522 18.896L36.5947 19.2359C38.4551 19.5937 39.4032 20.4524 39.4032 21.8298Z" fill="#2F2F2F"/>
<path d="M23.221 19.6831V24.8888H20.7345V15.3361H23.0242V16.6957C23.7218 15.7476 24.7057 15.1572 25.9579 15.1572C27.8719 15.1572 29.1957 16.4095 29.1957 18.7171V24.8888H26.7271V19.5579C26.7271 18.1447 26.1725 17.3576 25.0456 17.3576C24.0617 17.3576 23.221 18.1447 23.221 19.6831Z" fill="#2F2F2F"/>
<path d="M14.5244 25.0498C11.6623 25.0498 9.74823 23.0642 9.74823 20.0767C9.74823 17.2323 11.7338 15.1572 14.4886 15.1572C17.5117 15.1572 19.5152 17.608 19.068 20.7207H12.2884C12.4494 22.277 13.2007 23.1357 14.4707 23.1357C15.5619 23.1357 16.2953 22.599 16.5816 21.6509H19.0501C18.5135 23.8155 16.8499 25.0498 14.5244 25.0498ZM14.435 16.9819C13.2722 16.9819 12.5388 17.7332 12.3241 19.1465H16.4385C16.3669 17.8227 15.6156 16.9819 14.435 16.9819Z" fill="#2F2F2F"/>
<path d="M8.67582 21.8298C8.67582 23.8334 7.15532 25.0677 4.4363 25.0677C1.71728 25.0677 0.196771 23.7618 0 21.633H2.37914C2.39703 22.6169 3.23778 23.243 4.47207 23.243C5.43804 23.243 6.17146 22.9389 6.17146 22.2592C6.17146 21.6509 5.77792 21.4005 4.86561 21.2216L3.14834 20.8996C1.43106 20.5955 0.393542 19.6474 0.393542 18.1626C0.393542 16.3916 1.91405 15.1572 4.29319 15.1572C6.69022 15.1572 8.33594 16.4273 8.51483 18.4846H6.13568C6.04624 17.5544 5.3486 16.9819 4.29319 16.9819C3.38089 16.9819 2.77269 17.3218 2.77269 17.93C2.77269 18.5025 3.16623 18.735 4.02487 18.896L5.86736 19.2359C7.72774 19.5937 8.67582 20.4524 8.67582 21.8298Z" fill="#2F2F2F"/>
<path d="M13.727 5.68648H12.6402V3.33346H10.2931V2.32996H12.6402V0H13.727V2.32996H16.0741V3.33346H13.727V5.68648Z" fill="#2F2F2F"/>
</svg>
