  <svg width="267" height="35" viewBox="0 0 267 35" fill="none" xmlns="http://www.w3.org/2000/svg">
  <path fill-rule="evenodd" clip-rule="evenodd" d="M258.849 0.750001C257.019 0.250001 254.792 2.00942e-06 252.169 1.56647e-06L247.377 0C246.794 -9.84649e-08 246.228 0.0868846 245.681 0.231948C245.645 0.241527 245.62 0.273595 245.62 0.310071V7.31818C245.62 7.4061 245.808 7.593 245.887 7.63636L258.536 14.7145C258.751 14.8332 258.664 15.1505 258.416 15.1505H245.871C245.732 15.1505 245.62 15.2598 245.62 15.3946V17.1206C245.62 17.2554 245.732 17.3647 245.871 17.3647H258.119H266.668V13.2C266.668 10.8 266.409 8.76667 265.891 7.1C265.373 5.43334 264.528 4.08334 263.354 3.05C262.215 1.98334 260.713 1.21667 258.849 0.750001ZM242.716 15.3946C242.716 15.2598 242.604 15.1505 242.465 15.1505H229.82C229.572 15.1505 229.485 14.8332 229.7 14.7145L242.589 7.60298C242.668 7.55961 242.716 7.47848 242.716 7.39056V1.64667C242.716 1.58448 242.648 1.54529 242.592 1.57584C242.429 1.66526 242.268 1.75475 242.109 1.84317C241.89 1.9649 241.675 2.08462 241.463 2.19938C241.463 2.19938 225.048 11.2897 223.519 12.4074C221.96 13.5475 221.678 15.216 221.668 15.8333L221.668 17.3647H230.358H242.465C242.604 17.3647 242.716 17.2554 242.716 17.1206V15.3946ZM229.591 19.8266C229.591 19.6917 229.479 19.5824 229.34 19.5824H221.668L221.668 21.8C221.668 24.2 221.927 26.25 222.445 27.95C222.997 29.6167 223.843 30.9833 224.982 32.05C226.156 33.0833 227.658 33.8333 229.487 34.3C231.317 34.7667 233.544 35 236.167 35L242.465 35C242.604 35 242.716 34.8907 242.716 34.7558V28.2942C242.716 28.1593 242.604 28.05 242.465 28.05L236.478 28.05C235.132 28.05 234.01 27.95 233.112 27.75C232.249 27.5167 231.559 27.15 231.041 26.65C230.523 26.1167 230.143 25.4167 229.902 24.55C229.694 23.65 229.591 22.55 229.591 21.25V19.8266ZM245.871 35C245.732 35 245.62 34.8907 245.62 34.7558V28.2942C245.62 28.1593 245.732 28.05 245.871 28.05L251.858 28.05C253.204 28.05 254.309 27.95 255.172 27.75C256.07 27.5167 256.777 27.15 257.295 26.65C257.813 26.1167 258.175 25.4167 258.383 24.55C258.624 23.65 258.745 22.55 258.745 21.25V19.8942C258.745 19.7593 258.857 19.65 258.996 19.65H266.668L266.668 21.8C266.668 24.2 266.409 26.25 265.891 27.95C265.373 29.6167 264.528 30.9833 263.354 32.05C262.215 33.0833 260.713 33.8333 258.849 34.3C257.019 34.7667 254.792 35 252.169 35H245.871Z" fill="#F2590D"/>
  <path fill-rule="evenodd" clip-rule="evenodd" d="M206.269 0.0148506C210.08 0.0148506 212.813 0.876323 214.47 2.59927C216.126 4.32221 216.955 6.87349 216.955 10.2531V13.086C216.955 15.9355 216.375 18.1886 215.215 19.8453C214.056 21.502 212.167 22.5622 209.549 23.0261L218.048 33.5626C218.214 33.7282 218.264 33.9767 218.197 34.3081C218.131 34.6394 217.866 34.8051 217.402 34.8051H210.991C210.56 34.8051 210.262 34.7554 210.096 34.656C209.931 34.5566 209.765 34.3909 209.599 34.159L201.747 23.8213H185.693V33.7117C185.693 34.4406 185.329 34.8051 184.6 34.8051H179.232C178.47 34.8051 178.089 34.4406 178.089 33.7117V13.2683C178.161 12.5363 177.9 11.5728 179.16 10.5418C180.434 9.4992 187.604 3.53831 190.397 1.15847C190.857 0.79032 191.742 0.0148506 192.846 0.0148506H206.269ZM204.729 17.7579H185.693V7.4202C185.693 7.0226 185.909 6.82379 186.339 6.82379H204.729C206.418 6.82379 207.611 7.18826 208.307 7.9172C209.003 8.64614 209.351 9.75611 209.351 11.2471V13.3345C209.351 14.8255 209.003 15.9355 208.307 16.6645C207.611 17.3934 206.418 17.7579 204.729 17.7579Z" fill="#FF8136"/>
  <path fill-rule="evenodd" clip-rule="evenodd" d="M206.269 0.0148506C210.08 0.0148506 212.813 0.876323 214.47 2.59927C216.126 4.32221 216.955 6.87349 216.955 10.2531V13.086C216.955 15.9355 216.375 18.1886 215.215 19.8453C214.056 21.502 212.167 22.5622 209.549 23.0261L218.048 33.5626C218.214 33.7282 218.264 33.9767 218.197 34.3081C218.131 34.6394 217.866 34.8051 217.402 34.8051H210.991C210.56 34.8051 210.262 34.7554 210.096 34.656C209.931 34.5566 209.765 34.3909 209.599 34.159L201.747 23.8213H185.693V33.7117C185.693 34.4406 185.329 34.8051 184.6 34.8051H179.232C178.47 34.8051 178.089 34.4406 178.089 33.7117V13.2683C178.161 12.5363 177.9 11.5728 179.16 10.5418C180.434 9.4992 187.604 3.53831 190.397 1.15847C190.857 0.79032 191.742 0.0148506 192.846 0.0148506H206.269ZM204.729 17.7579H185.693V7.4202C185.693 7.0226 185.909 6.82379 186.339 6.82379H204.729C206.418 6.82379 207.611 7.18826 208.307 7.9172C209.003 8.64614 209.351 9.75611 209.351 11.2471V13.3345C209.351 14.8255 209.003 15.9355 208.307 16.6645C207.611 17.3934 206.418 17.7579 204.729 17.7579Z" fill="#2F2F2F"/>
  <path fill-rule="evenodd" clip-rule="evenodd" d="M170.691 2.59927C169.034 0.876323 166.3 0.0148506 162.49 0.0148506H151.061H149.146C147.84 0.0148506 146.944 0.794042 146.376 1.27431C143.364 3.82287 136.645 9.4992 135.507 10.4151C134.45 11.2652 134.315 12.9694 134.31 13.8559V13.9125V33.7117C134.31 34.4406 134.691 34.8051 135.453 34.8051H140.821C141.55 34.8051 141.914 34.4406 141.914 33.7117V24.1692H162.49C166.3 24.1692 169.034 23.3077 170.691 21.5848C172.347 19.8618 173.176 17.3106 173.176 13.9309V10.2531C173.176 6.87349 172.347 4.32221 170.691 2.59927ZM160.949 17.6088H141.914V7.4699C141.914 7.07229 142.129 6.87349 142.56 6.87349H160.949C162.639 6.87349 163.832 7.23796 164.528 7.9669C165.224 8.69584 165.571 9.80581 165.571 11.2968V13.1854C165.571 14.6764 165.224 15.7864 164.528 16.5154C163.832 17.2443 162.639 17.6088 160.949 17.6088Z" fill="#FF8136"/>
  <path fill-rule="evenodd" clip-rule="evenodd" d="M170.691 2.59927C169.034 0.876323 166.3 0.0148506 162.49 0.0148506H151.061H149.146C147.84 0.0148506 146.944 0.794042 146.376 1.27431C143.364 3.82287 136.645 9.4992 135.507 10.4151C134.45 11.2652 134.315 12.9694 134.31 13.8559V13.9125V33.7117C134.31 34.4406 134.691 34.8051 135.453 34.8051H140.821C141.55 34.8051 141.914 34.4406 141.914 33.7117V24.1692H162.49C166.3 24.1692 169.034 23.3077 170.691 21.5848C172.347 19.8618 173.176 17.3106 173.176 13.9309V10.2531C173.176 6.87349 172.347 4.32221 170.691 2.59927ZM160.949 17.6088H141.914V7.4699C141.914 7.07229 142.129 6.87349 142.56 6.87349H160.949C162.639 6.87349 163.832 7.23796 164.528 7.9669C165.224 8.69584 165.571 9.80581 165.571 11.2968V13.1854C165.571 14.6764 165.224 15.7864 164.528 16.5154C163.832 17.2443 162.639 17.6088 160.949 17.6088Z" fill="#2F2F2F"/>
  <path fill-rule="evenodd" clip-rule="evenodd" d="M126.238 0.0148506C126.966 0.0148506 127.331 0.37932 127.331 1.10826V5.82979C127.331 6.55872 126.966 6.92319 126.238 6.92319H101.338C100.377 6.92319 99.6975 7.1717 99.2999 7.6687C98.9023 8.1657 98.7035 8.84494 98.7035 9.70641V11.3962C98.7035 13.2517 99.565 14.1794 101.288 14.1794H119.926C122.808 14.1794 124.978 14.9249 126.436 16.416C127.894 17.8738 128.623 19.9778 128.623 22.7279V26.7039C128.623 29.1227 127.911 31.0775 126.486 32.5686C125.061 34.0596 122.841 34.8051 119.826 34.8051H92.2922C91.5301 34.8051 91.1491 34.4406 91.1491 33.7117V28.9901C91.1491 28.2612 91.5301 27.8967 92.2922 27.8967H118.385C119.346 27.8967 120.025 27.6482 120.423 27.1512C120.82 26.6542 121.019 25.975 121.019 25.1135V23.0758C121.019 21.2203 120.157 20.2926 118.435 20.2926H99.7969C96.9143 20.2926 94.7441 19.5636 93.2862 18.1058C92.4112 17.2109 91.7988 16.0893 91.449 14.7409C91.2421 13.7285 91.5093 11.763 92.3929 11.0052C92.3929 11.0052 101.545 3.3595 104.556 0.81094C105.284 0.195099 105.378 0.0148506 106.975 0.0148506H126.238Z" fill="#FF8136"/>
  <path fill-rule="evenodd" clip-rule="evenodd" d="M126.238 0.0148506C126.966 0.0148506 127.331 0.37932 127.331 1.10826V5.82979C127.331 6.55872 126.966 6.92319 126.238 6.92319H101.338C100.377 6.92319 99.6975 7.1717 99.2999 7.6687C98.9023 8.1657 98.7035 8.84494 98.7035 9.70641V11.3962C98.7035 13.2517 99.565 14.1794 101.288 14.1794H119.926C122.808 14.1794 124.978 14.9249 126.436 16.416C127.894 17.8738 128.623 19.9778 128.623 22.7279V26.7039C128.623 29.1227 127.911 31.0775 126.486 32.5686C125.061 34.0596 122.841 34.8051 119.826 34.8051H92.2922C91.5301 34.8051 91.1491 34.4406 91.1491 33.7117V28.9901C91.1491 28.2612 91.5301 27.8967 92.2922 27.8967H118.385C119.346 27.8967 120.025 27.6482 120.423 27.1512C120.82 26.6542 121.019 25.975 121.019 25.1135V23.0758C121.019 21.2203 120.157 20.2926 118.435 20.2926H99.7969C96.9143 20.2926 94.7441 19.5636 93.2862 18.1058C92.4112 17.2109 91.7988 16.0893 91.449 14.7409C91.2421 13.7285 91.5093 11.763 92.3929 11.0052C92.3929 11.0052 101.545 3.3595 104.556 0.81094C105.284 0.195099 105.378 0.0148506 106.975 0.0148506H126.238Z" fill="#2F2F2F"/>
  <path fill-rule="evenodd" clip-rule="evenodd" d="M50.6673 1.10823C50.6673 -0.0612382 49.0436 0.413964 48.1463 1.16392C46.4299 2.59844 44.1882 4.45917 43.8566 4.74958C43.0632 5.44464 43.0632 6.00324 43.0632 6.37139V21.6842C43.0632 24.0698 43.3117 26.1075 43.8087 27.7973C44.3388 29.454 45.1506 30.8124 46.244 31.8727C47.3705 32.8999 48.8118 33.6454 50.5679 34.1092C52.324 34.5731 54.4611 34.805 56.9792 34.805H71.2929C73.8111 34.805 75.9482 34.5731 77.7043 34.1092C79.4935 33.6454 80.9348 32.8999 82.0282 31.8727C83.1547 30.8124 83.9665 29.454 84.4635 27.7973C84.9605 26.1075 85.209 24.0698 85.209 21.6842V1.10823C85.209 0.379289 84.8445 0.0148198 84.1156 0.0148198H78.6983C77.9693 0.0148198 77.6049 0.379289 77.6049 1.10823V20.9387C77.6049 22.264 77.5055 23.374 77.3067 24.2686C77.1079 25.13 76.76 25.8258 76.263 26.356C75.766 26.853 75.0867 27.2175 74.2252 27.4494C73.3969 27.6482 72.3366 27.7476 71.0444 27.7476H57.2774C55.9852 27.7476 54.9084 27.6482 54.0469 27.4494C53.2186 27.2175 52.5559 26.853 52.0589 26.356C51.5619 25.8258 51.1974 25.13 50.9655 24.2686C50.7667 23.374 50.6673 22.264 50.6673 20.9387V1.10823Z" fill="#FF8136"/>
  <path fill-rule="evenodd" clip-rule="evenodd" d="M50.6673 1.10823C50.6673 -0.0612382 49.0436 0.413964 48.1463 1.16392C46.4299 2.59844 44.1882 4.45917 43.8566 4.74958C43.0632 5.44464 43.0632 6.00324 43.0632 6.37139V21.6842C43.0632 24.0698 43.3117 26.1075 43.8087 27.7973C44.3388 29.454 45.1506 30.8124 46.244 31.8727C47.3705 32.8999 48.8118 33.6454 50.5679 34.1092C52.324 34.5731 54.4611 34.805 56.9792 34.805H71.2929C73.8111 34.805 75.9482 34.5731 77.7043 34.1092C79.4935 33.6454 80.9348 32.8999 82.0282 31.8727C83.1547 30.8124 83.9665 29.454 84.4635 27.7973C84.9605 26.1075 85.209 24.0698 85.209 21.6842V1.10823C85.209 0.379289 84.8445 0.0148198 84.1156 0.0148198H78.6983C77.9693 0.0148198 77.6049 0.379289 77.6049 1.10823V20.9387C77.6049 22.264 77.5055 23.374 77.3067 24.2686C77.1079 25.13 76.76 25.8258 76.263 26.356C75.766 26.853 75.0867 27.2175 74.2252 27.4494C73.3969 27.6482 72.3366 27.7476 71.0444 27.7476H57.2774C55.9852 27.7476 54.9084 27.6482 54.0469 27.4494C53.2186 27.2175 52.5559 26.853 52.0589 26.356C51.5619 25.8258 51.1974 25.13 50.9655 24.2686C50.7667 23.374 50.6673 22.264 50.6673 20.9387V1.10823Z" fill="#2F2F2F"/>
  <path  fill-rule="evenodd" clip-rule="evenodd" d="M36.1818 1.10826C36.1818 0.37932 35.8174 0.0148506 35.0884 0.0148506H16.1684C15.34 0.0148506 14.43 0.139065 13.7357 0.81094C13.4962 1.04263 3.07807 9.70641 1.45626 11.121C0.336266 12.0979 0.385057 14.1957 0.413673 14.5963C0.529517 16.2181 1.1434 17.0895 2.13711 18.1058C3.59499 19.5636 5.76524 20.2926 8.64786 20.2926H27.2855C29.0084 20.2926 29.8699 21.2203 29.8699 23.0758V25.1135C29.8699 25.975 29.6711 26.6542 29.2735 27.1512C28.8759 27.6482 28.1966 27.8967 27.2358 27.8967H1.14311C0.381036 27.8967 0 28.2612 0 28.9901V33.7117C0 34.4406 0.381036 34.8051 1.14311 34.8051H28.6771C31.6922 34.8051 33.9122 34.0596 35.3369 32.5686C36.7617 31.0775 37.474 29.1227 37.474 26.7039V22.7279C37.474 19.9778 36.7451 17.8738 35.2872 16.416C33.8293 14.9249 31.6591 14.1794 28.7765 14.1794H10.1389C8.41592 14.1794 7.55445 13.2517 7.55445 11.3962V9.70641C7.55445 8.84494 7.75325 8.1657 8.15085 7.6687C8.54845 7.1717 9.22769 6.92319 10.1886 6.92319H35.0884C35.8174 6.92319 36.1818 6.55872 36.1818 5.82979V1.10826Z" fill="#FF8136"/>
  <path fill-rule="evenodd" clip-rule="evenodd" d="M36.1818 1.10826C36.1818 0.37932 35.8174 0.0148506 35.0884 0.0148506H16.1684C15.34 0.0148506 14.43 0.139065 13.7357 0.81094C13.4962 1.04263 3.07807 9.70641 1.45626 11.121C0.336266 12.0979 0.385057 14.1957 0.413673 14.5963C0.529517 16.2181 1.1434 17.0895 2.13711 18.1058C3.59499 19.5636 5.76524 20.2926 8.64786 20.2926H27.2855C29.0084 20.2926 29.8699 21.2203 29.8699 23.0758V25.1135C29.8699 25.975 29.6711 26.6542 29.2735 27.1512C28.8759 27.6482 28.1966 27.8967 27.2358 27.8967H1.14311C0.381036 27.8967 0 28.2612 0 28.9901V33.7117C0 34.4406 0.381036 34.8051 1.14311 34.8051H28.6771C31.6922 34.8051 33.9122 34.0596 35.3369 32.5686C36.7617 31.0775 37.474 29.1227 37.474 26.7039V22.7279C37.474 19.9778 36.7451 17.8738 35.2872 16.416C33.8293 14.9249 31.6591 14.1794 28.7765 14.1794H10.1389C8.41592 14.1794 7.55445 13.2517 7.55445 11.3962V9.70641C7.55445 8.84494 7.75325 8.1657 8.15085 7.6687C8.54845 7.1717 9.22769 6.92319 10.1886 6.92319H35.0884C35.8174 6.92319 36.1818 6.55872 36.1818 5.82979V1.10826Z" fill="#2F2F2F"/>
  </svg>
