<svg width="1440" height="80" viewBox="0 0 1440 80" fill="none" xmlns="http://www.w3.org/2000/svg">
<rect width="1440" height="80" fill="white" fill-opacity="0.2"/>
<path d="M769.999 35.0998C769.999 37.9262 768.335 40.055 765.759 40.055C764.632 40.055 763.666 39.572 762.951 38.6418V43.3287H760.464V30.3234H762.754V31.7188C763.487 30.6991 764.543 30.1445 765.759 30.1445C768.335 30.1445 769.999 32.2912 769.999 35.0998ZM767.441 35.0998C767.441 33.3109 766.421 32.3449 765.205 32.3449C763.988 32.3449 762.969 33.293 762.969 35.0998C762.969 36.9066 763.988 37.8368 765.205 37.8368C766.421 37.8368 767.441 36.9245 767.441 35.0998Z" fill="#2F2F2F"/>
<path d="M754.254 40.0371C751.392 40.0371 749.478 38.0515 749.478 35.064C749.478 32.2197 751.464 30.1445 754.218 30.1445C757.241 30.1445 759.245 32.5953 758.798 35.708H752.018C752.179 37.2643 752.93 38.123 754.2 38.123C755.292 38.123 756.025 37.5863 756.311 36.6382H758.78C758.243 38.8028 756.58 40.0371 754.254 40.0371ZM754.165 31.9692C753.002 31.9692 752.269 32.7205 752.054 34.1338H756.168C756.097 32.81 755.345 31.9692 754.165 31.9692Z" fill="#2F2F2F"/>
<path d="M744.069 40.0371C741.206 40.0371 739.292 38.0515 739.292 35.064C739.292 32.2197 741.278 30.1445 744.033 30.1445C747.056 30.1445 749.059 32.5953 748.612 35.708H741.832C741.993 37.2643 742.745 38.123 744.015 38.123C745.106 38.123 745.839 37.5863 746.126 36.6382H748.594C748.058 38.8028 746.394 40.0371 744.069 40.0371ZM743.979 31.9692C742.816 31.9692 742.083 32.7205 741.868 34.1338H745.983C745.911 32.81 745.16 31.9692 743.979 31.9692Z" fill="#2F2F2F"/>
<path d="M728.165 35.0997C728.165 32.2732 729.829 30.1444 732.405 30.1444C733.55 30.1444 734.516 30.6453 735.231 31.5577V27.0317H737.7V39.876H735.428V38.4986C734.677 39.5004 733.639 40.0549 732.405 40.0549C729.829 40.0549 728.165 37.8904 728.165 35.0997ZM730.723 35.0997C730.723 36.8886 731.743 37.8367 732.959 37.8367C734.194 37.8367 735.213 36.8707 735.213 35.0639C735.213 33.2571 734.176 32.3448 732.959 32.3448C731.743 32.3448 730.723 33.275 730.723 35.0997Z" fill="#2F2F2F"/>
<path d="M754.252 52.0498C751.39 52.0498 749.476 50.0642 749.476 47.0767C749.476 44.2323 751.461 42.1572 754.216 42.1572C757.239 42.1572 759.243 44.608 758.795 47.7207H752.016C752.177 49.277 752.928 50.1357 754.198 50.1357C755.289 50.1357 756.023 49.599 756.309 48.6509H758.777C758.241 50.8155 756.577 52.0498 754.252 52.0498ZM754.162 43.9819C753 43.9819 752.266 44.7332 752.052 46.1465H756.166C756.094 44.8227 755.343 43.9819 754.162 43.9819Z" fill="#2F2F2F"/>
<path d="M748.403 48.8298C748.403 50.8334 746.883 52.0677 744.164 52.0677C741.445 52.0677 739.924 50.7618 739.727 48.633H742.106C742.124 49.6169 742.965 50.243 744.199 50.243C745.165 50.243 745.899 49.9389 745.899 49.2592C745.899 48.6509 745.505 48.4005 744.593 48.2216L742.876 47.8996C741.158 47.5955 740.121 46.6474 740.121 45.1626C740.121 43.3916 741.641 42.1572 744.021 42.1572C746.418 42.1572 748.063 43.4273 748.242 45.4846H745.863C745.774 44.5544 745.076 43.9819 744.021 43.9819C743.108 43.9819 742.5 44.3218 742.5 44.93C742.5 45.5025 742.894 45.735 743.752 45.896L745.595 46.2359C747.455 46.5937 748.403 47.4524 748.403 48.8298Z" fill="#2F2F2F"/>
<path d="M732.221 46.6831V51.8888H729.734V42.3361H732.024V43.6957C732.722 42.7476 733.706 42.1572 734.958 42.1572C736.872 42.1572 738.196 43.4095 738.196 45.7171V51.8888H735.727V46.5579C735.727 45.1447 735.173 44.3576 734.046 44.3576C733.062 44.3576 732.221 45.1447 732.221 46.6831Z" fill="#2F2F2F"/>
<path d="M723.524 52.0498C720.662 52.0498 718.748 50.0642 718.748 47.0767C718.748 44.2323 720.734 42.1572 723.489 42.1572C726.512 42.1572 728.515 44.608 728.068 47.7207H721.288C721.449 49.277 722.201 50.1357 723.471 50.1357C724.562 50.1357 725.295 49.599 725.582 48.6509H728.05C727.513 50.8155 725.85 52.0498 723.524 52.0498ZM723.435 43.9819C722.272 43.9819 721.539 44.7332 721.324 46.1465H725.438C725.367 44.8227 724.616 43.9819 723.435 43.9819Z" fill="#2F2F2F"/>
<path d="M717.676 48.8298C717.676 50.8334 716.155 52.0677 713.436 52.0677C710.717 52.0677 709.197 50.7618 709 48.633H711.379C711.397 49.6169 712.238 50.243 713.472 50.243C714.438 50.243 715.171 49.9389 715.171 49.2592C715.171 48.6509 714.778 48.4005 713.866 48.2216L712.148 47.8996C710.431 47.5955 709.394 46.6474 709.394 45.1626C709.394 43.3916 710.914 42.1572 713.293 42.1572C715.69 42.1572 717.336 43.4273 717.515 45.4846H715.136C715.046 44.5544 714.349 43.9819 713.293 43.9819C712.381 43.9819 711.773 44.3218 711.773 44.93C711.773 45.5025 712.166 45.735 713.025 45.896L714.867 46.2359C716.728 46.5937 717.676 47.4524 717.676 48.8298Z" fill="#2F2F2F"/>
<path d="M722.727 32.6865H721.64V30.3335H719.293V29.33H721.64V27H722.727V29.33H725.074V30.3335H722.727V32.6865Z" fill="#2F2F2F"/>
<circle cx="682" cy="40" r="13" fill="black"/>
<path d="M686 37C686.552 37 687 36.5523 687 36C687 35.4477 686.552 35 686 35C685.448 35 685 35.4477 685 36C685 36.5523 685.448 37 686 37Z" fill="#DADADA"/>
<path d="M685.333 32.5C687.633 32.5 689.5 34.3667 689.5 36.6667V43.3333C689.5 45.6333 687.633 47.5 685.333 47.5H678.667C676.367 47.5 674.5 45.6333 674.5 43.3333V36.6667C674.5 34.3667 676.367 32.5 678.667 32.5H682H685.333Z" stroke="#DADADA" stroke-width="2" stroke-linecap="round" stroke-linejoin="round"/>
<path d="M682 36.6665C683.842 36.6665 685.333 38.1582 685.333 39.9998C685.333 41.8415 683.842 43.3332 682 43.3332C680.158 43.3332 678.667 41.8415 678.667 39.9998C678.667 38.1582 680.158 36.6665 682 36.6665Z" stroke="#DADADA" stroke-width="2" stroke-linecap="round" stroke-linejoin="round"/>
</svg>
