<svg width="30" height="30" viewBox="0 0 30 30" fill="none" xmlns="http://www.w3.org/2000/svg">
<path d="M25.5 15C25.5 17.6522 24.3754 20.6246 22.5 22.5C20.6246 24.3754 17.6522 25.5 15 25.5C12.3478 25.5 9.37536 24.3754 7.5 22.5C5.62464 20.6246 4.5 17.6522 4.5 15C4.5 12.3478 5.62464 9.37536 7.5 7.5C9.37536 5.62464 12.3478 4.5 15 4.5C17.6522 4.5 20.6246 5.62464 22.5 7.5C24.3754 9.37536 25.5 12.3478 25.5 15ZM15 27.5C21.9037 27.5 27.5 21.9037 27.5 15C27.5 8.09625 21.9037 2.5 15 2.5C8.09625 2.5 2.5 8.09625 2.5 15C2.5 21.9037 8.09625 27.5 15 27.5ZM15.4475 11.7275C14.2325 12.2333 11.8029 13.2804 8.15875 14.8688C7.56625 15.1038 7.25625 15.3337 7.22875 15.5587C7.18125 15.9387 7.6575 16.0888 8.30625 16.2925L8.57875 16.38C9.21625 16.5875 10.0763 16.83 10.5225 16.84C10.9275 16.8483 11.3792 16.6817 11.8775 16.34C15.2825 14.04 17.04 12.8779 17.15 12.8538C17.2288 12.8363 17.3363 12.8138 17.4088 12.8788C17.4825 12.9438 17.475 13.0662 17.4675 13.1C17.42 13.3012 15.55 15.04 14.5825 15.9388C14.2958 16.2088 14.0113 16.4808 13.7288 16.755C13.1363 17.3263 12.6912 17.755 13.7537 18.455C14.83 19.165 15.9162 19.8725 16.9662 20.6213C17.4837 20.9913 17.9488 21.3213 18.5238 21.27C18.8575 21.2388 19.2025 20.925 19.3775 19.9875C19.7925 17.775 20.6063 12.9775 20.7938 11C20.8046 10.836 20.7975 10.6712 20.7725 10.5087C20.7577 10.378 20.6944 10.2575 20.595 10.1713C20.445 10.0488 20.2138 10.0238 20.1113 10.025C19.6413 10.0338 18.92 10.2838 15.4488 11.7275" fill="currentColor"/>
</svg>
