<svg width="30" height="30" viewBox="0 0 30 30" fill="none" xmlns="http://www.w3.org/2000/svg">
<path d="M14.7188 3.75C12.9375 3.75 8.5313 3.9375 6.18755 6.1875C4.50005 7.78125 3.8438 10.2188 3.75005 13.125C3.56255 17.7188 4.5938 20.625 6.2813 22.125C6.6563 22.4062 7.5938 23.1562 9.37505 23.7188V26.0625C9.37505 26.0625 9.37505 27 9.93755 27.1875C10.0313 27.1875 10.125 27.2812 10.2188 27.2812C10.7813 27.2812 11.25 26.625 11.9063 25.9688C12.4688 25.3125 12.9375 24.8438 13.2188 24.375H15.2813C17.0625 24.375 21.4688 24.1875 23.8125 21.9375C25.5 20.25 26.1563 17.8125 26.1563 14.7188C26.25 14.25 26.25 13.6875 26.25 13.125C26.1563 9.65625 25.125 7.3125 23.7188 6C23.1563 5.53125 20.7188 3.75 15.4688 3.75H14.7188ZM14.5313 5.53125H15.375C20.3438 5.53125 22.2188 7.125 22.4063 7.3125C23.5313 8.25 24.1875 10.3125 24.2813 13.0312V13.4062C24.375 13.9688 24.375 14.4375 24.375 14.7188C24.2813 17.5312 23.7188 19.4062 22.5938 20.625C20.625 22.4062 16.5 22.5 15.375 22.5H13.5938L12.0938 24.1875L11.1563 25.2188L10.9688 25.5C10.7813 25.6875 10.5 26.0625 10.3125 26.1562V21.9375C8.43755 21.4688 7.68755 20.8125 7.50005 20.625C6.18755 19.5 5.43755 16.7812 5.62505 13.125V12.1875C5.81255 9.9375 6.37505 8.4375 7.31255 7.40625C9.2813 5.625 13.4063 5.53125 14.5313 5.53125ZM14.4375 7.59375C13.9688 7.59375 13.9688 8.25 14.4375 8.25C17.9063 8.25 20.9063 10.5938 20.9063 15C20.9063 15.4688 21.5625 15.4688 21.5625 15C21.5625 10.2188 18.375 7.5 14.4375 7.59375ZM10.7222 8.46094C10.5099 8.43598 10.2961 8.49447 10.126 8.62406C9.18848 9.09281 8.25005 10.0322 8.5313 11.0634C8.5313 11.0634 8.7188 11.9062 9.75005 13.6875C10.3125 14.5312 10.7813 15.2812 11.25 15.8438C11.7188 16.5 12.4688 17.25 13.2188 17.8125C14.7188 19.0312 17.0625 20.25 18.0938 20.5312C19.0313 20.8125 20.0625 19.875 20.5313 18.9375C20.7188 18.5625 20.625 18.0938 20.25 17.8125C19.6875 17.25 18.75 16.5937 18.0938 16.2187C17.625 15.9375 17.0625 16.125 16.875 16.4062L16.4063 16.9688C16.2188 17.25 15.75 17.25 15.75 17.25C12.6563 16.4062 11.8125 13.2188 11.8125 13.2188C11.8125 13.2188 11.8125 12.8438 12.0938 12.5625L12.6563 12.0938C12.9375 11.9062 13.125 11.3438 12.8438 10.875C12.6563 10.5938 12.375 10.0312 12.0938 9.75C11.8125 9.375 11.25 8.71875 11.25 8.71875C11.1079 8.5762 10.9221 8.48542 10.7222 8.46094ZM15.0938 9.46875C14.625 9.375 14.5313 10.125 15 10.125C17.625 10.3125 19.125 12.0938 19.0313 14.3438C18.9375 14.8125 19.6875 14.8125 19.6875 14.3438C19.7813 11.7188 18.0938 9.5625 15.0938 9.46875ZM15.375 11.25C14.9063 11.1562 14.9063 11.9062 15.375 11.9062C16.5 11.9062 17.0625 12.5625 17.0625 13.6875C17.1563 14.1562 17.8125 14.1562 17.8125 13.6875C17.7188 12.1875 16.875 11.25 15.375 11.25Z" fill="currentColor"/>
</svg>
