<svg width="45" height="35" viewBox="0 0 45 35" fill="none" xmlns="http://www.w3.org/2000/svg">
<path fill-rule="evenodd" clip-rule="evenodd" d="M37.1807 0.750001C35.351 0.250001 33.1243 2.00942e-06 30.5006 1.56647e-06L25.709 0C25.1257 -9.84649e-08 24.5605 0.0868846 24.0127 0.231948C23.9765 0.241527 23.9516 0.273595 23.9516 0.310071V7.31818C23.9516 7.4061 24.1402 7.593 24.2188 7.63636L36.8681 14.7145C37.0833 14.8332 36.996 15.1505 36.7482 15.1505H24.2025C24.064 15.1505 23.9516 15.2598 23.9516 15.3946V17.1206C23.9516 17.2554 24.064 17.3647 24.2025 17.3647H36.4512H45V13.2C45 10.8 44.7411 8.76667 44.2232 7.1C43.7054 5.43334 42.8596 4.08334 41.6858 3.05C40.5466 1.98334 39.0449 1.21667 37.1807 0.750001ZM21.0484 15.3946C21.0484 15.2598 20.936 15.1505 20.7975 15.1505H8.15194C7.90413 15.1505 7.81689 14.8332 8.03205 14.7145L20.9212 7.60298C20.9998 7.55961 21.0484 7.47848 21.0484 7.39056V1.64667C21.0484 1.58448 20.9796 1.54529 20.924 1.57584C20.7611 1.66526 20.6001 1.75475 20.441 1.84317C20.2219 1.9649 20.0065 2.08462 19.7947 2.19938C19.7947 2.19938 3.37959 11.2897 1.85086 12.4074C0.291586 13.5475 0.00961573 15.216 1.08046e-06 15.8333L8.03149e-07 17.3647H8.69036H20.7975C20.936 17.3647 21.0484 17.2554 21.0484 17.1206V15.3946ZM7.92289 19.8266C7.92289 19.6917 7.81054 19.5824 7.67196 19.5824H4.01575e-07L0 21.8C-4.34598e-07 24.2 0.258903 26.25 0.77674 27.95C1.3291 29.6167 2.17489 30.9833 3.31413 32.05C4.4879 33.0833 5.98964 33.8333 7.81933 34.3C9.64902 34.7667 11.8757 35 14.4994 35L20.7975 35C20.936 35 21.0484 34.8907 21.0484 34.7558V28.2942C21.0484 28.1593 20.936 28.05 20.7975 28.05L14.8101 28.05C13.4637 28.05 12.3418 27.95 11.4442 27.75C10.5811 27.5167 9.89068 27.15 9.37284 26.65C8.855 26.1167 8.47524 25.4167 8.23359 24.55C8.02645 23.65 7.92289 22.55 7.92289 21.25V19.8266ZM24.2025 35C24.064 35 23.9516 34.8907 23.9516 34.7558V28.2942C23.9516 28.1593 24.064 28.05 24.2025 28.05L30.1899 28.05C31.5363 28.05 32.6409 27.95 33.504 27.75C34.4016 27.5167 35.1093 27.15 35.6272 26.65C36.145 26.1167 36.5075 25.4167 36.7146 24.55C36.9563 23.65 37.0771 22.55 37.0771 21.25V19.8942C37.0771 19.7593 37.1894 19.65 37.328 19.65H45L45 21.8C45 24.2 44.7411 26.25 44.2232 27.95C43.7054 29.6167 42.8596 30.9833 41.6858 32.05C40.5466 33.0833 39.0449 33.8333 37.1807 34.3C35.351 34.7667 33.1243 35 30.5006 35H24.2025Z" fill="#F6F6F6"/>
</svg>
