<?xml version="1.0" encoding="utf-8"?><svg xmlns="http://www.w3.org/2000/svg" xmlns:xlink="http://www.w3.org/1999/xlink"><symbol viewBox="0 0 51 11" id="arr" xmlns="http://www.w3.org/2000/svg"><path d="M50.53 6.053a.75.75 0 0 0 0-1.06L45.757.22a.75.75 0 0 0-1.06 1.06l4.242 4.243-4.242 4.243a.75.75 0 0 0 1.06 1.06l4.773-4.773zM0 5.523v.75h50v-1.5H0v.75z"/></symbol><symbol viewBox="0 0 27 23" id="arrow-slider" xmlns="http://www.w3.org/2000/svg"><path d="M.94 10.94a1.5 1.5 0 0 0 0 2.12l9.545 9.547a1.5 1.5 0 1 0 2.122-2.122L4.12 12l8.486-8.485a1.5 1.5 0 1 0-2.122-2.122L.94 10.94zM27 10.5H2v3h25v-3z"/></symbol><symbol viewBox="0 0 21 47" id="bdl" xmlns="http://www.w3.org/2000/svg"><path d="M1 1v30.358c0 1.467.654 2.43 1.66 3.34L14.478 45.33c1.056.912 1.559 1.671 3.168 1.671H20.5"/></symbol><symbol viewBox="0 0 28 28" id="facebook" xmlns="http://www.w3.org/2000/svg"><path d="M27.5 15.076C27.5 8.13 21.904 2.5 15 2.5S2.5 8.13 2.5 15.076c0 6.278 4.57 11.48 10.547 12.424v-8.788H9.873v-3.637h3.174v-2.77c0-3.152 1.865-4.893 4.721-4.893 1.367 0 2.799.245 2.799.245v3.095h-1.578c-1.552 0-2.036.97-2.036 1.965v2.359h3.467l-.554 3.635h-2.913V27.5C22.93 26.557 27.5 21.354 27.5 15.076z"/></symbol><symbol viewBox="0 0 45 35" id="home" xmlns="http://www.w3.org/2000/svg"><path fill-rule="evenodd" clip-rule="evenodd" d="M37.18.75C35.352.25 33.125 0 30.5 0h-4.79a6.61 6.61 0 0 0-1.696.232.081.081 0 0 0-.061.078v7.008c0 .088.188.275.267.318l12.65 7.078c.214.12.127.436-.12.436H24.201c-.138 0-.25.11-.25.245v1.726c0 .134.112.244.25.244H45V13.2c0-2.4-.259-4.433-.777-6.1-.518-1.667-1.363-3.017-2.537-4.05-1.14-1.067-2.641-1.833-4.505-2.3zM21.049 15.395a.248.248 0 0 0-.25-.245H8.151c-.248 0-.335-.317-.12-.436l12.89-7.111a.243.243 0 0 0 .126-.212V1.647a.083.083 0 0 0-.124-.071l-.483.267c-.22.122-.434.242-.646.356 0 0-16.415 9.09-17.944 10.208C.29 13.547.01 15.216 0 15.833v1.532h20.797c.139 0 .251-.11.251-.244v-1.726zM7.923 19.827a.248.248 0 0 0-.251-.245H0V21.8c0 2.4.259 4.45.777 6.15.552 1.667 1.398 3.033 2.537 4.1 1.174 1.033 2.676 1.783 4.505 2.25 1.83.467 4.057.7 6.68.7h6.298c.139 0 .251-.11.251-.244v-6.462a.248.248 0 0 0-.25-.244H14.81c-1.346 0-2.468-.1-3.366-.3-.863-.233-1.553-.6-2.071-1.1-.518-.533-.898-1.233-1.14-2.1-.207-.9-.31-2-.31-3.3v-1.423zM24.203 35a.248.248 0 0 1-.251-.244v-6.462c0-.135.112-.244.25-.244h5.988c1.346 0 2.45-.1 3.314-.3.898-.233 1.605-.6 2.123-1.1.518-.533.88-1.233 1.088-2.1.241-.9.362-2 .362-3.3v-1.356c0-.135.112-.244.251-.244H45v2.15c0 2.4-.259 4.45-.777 6.15-.518 1.667-1.363 3.033-2.537 4.1-1.14 1.033-2.641 1.783-4.505 2.25-1.83.467-4.057.7-6.68.7h-6.299z"/></symbol><symbol viewBox="0 0 28 28" id="instagram" xmlns="http://www.w3.org/2000/svg"><path d="M27.5 15c0-6.9-5.6-12.5-12.5-12.5S2.5 8.1 2.5 15c0 6.05 5 12.5 12.5 12.5 7 0 12.5-6.012 12.5-12.5z"/><path d="M19 12a1 1 0 1 0 0-2 1 1 0 0 0 0 2z"/><path d="M18.333 7.5c2.3 0 4.167 1.867 4.167 4.167v6.666c0 2.3-1.867 4.167-4.167 4.167h-6.666A4.168 4.168 0 0 1 7.5 18.333v-6.666c0-2.3 1.867-4.167 4.167-4.167h6.666z"/><path d="M15 11.666a3.332 3.332 0 1 1 0 6.667 3.332 3.332 0 1 1 0-6.666z"/></symbol><symbol viewBox="0 0 40 40" id="phone" xmlns="http://www.w3.org/2000/svg"><path d="M20 0C8.954 0 0 8.954 0 20s8.954 20 20 20 20-8.954 20-20S31.046 0 20 0zm-7.188 7.944c.413-.024.785.222 1.067.66l2.735 5.185c.288.614.124 1.272-.305 1.712l-1.253 1.252a.613.613 0 0 0-.13.356c.481 1.86 1.938 3.574 3.223 4.754 1.286 1.18 2.667 2.776 4.46 3.154.222.062.494.084.653-.063l1.455-1.482c.502-.381 1.229-.566 1.765-.254h.024l4.934 2.912c.725.454.8 1.332.281 1.866l-3.398 3.371c-.502.515-1.169.688-1.817.689-2.864-.086-5.572-1.492-7.795-2.937-3.65-2.655-6.997-5.948-9.1-9.927-.805-1.668-1.752-3.797-1.662-5.66.008-.7.198-1.386.691-1.838l3.399-3.398c.264-.225.526-.337.774-.352z"/><path d="M12.813 7.944c.412-.024.784.222 1.066.66l2.735 5.185c.288.614.124 1.272-.305 1.712l-1.253 1.252a.613.613 0 0 0-.13.356c.481 1.86 1.938 3.574 3.223 4.754 1.286 1.18 2.667 2.776 4.46 3.154.222.062.494.084.653-.063l1.455-1.482c.502-.381 1.229-.566 1.765-.254h.024l4.934 2.912c.725.454.8 1.332.281 1.866l-3.398 3.371c-.502.515-1.169.688-1.817.689-2.864-.086-5.572-1.492-7.795-2.937-3.65-2.655-6.997-5.948-9.1-9.927-.805-1.668-1.752-3.797-1.662-5.66.008-.7.198-1.386.691-1.838l3.399-3.398c.264-.225.526-.337.774-.352z"/></symbol><symbol viewBox="0 0 28 28" id="telegram" xmlns="http://www.w3.org/2000/svg"><path d="M25.5 15c0 2.652-1.125 5.625-3 7.5s-4.848 3-7.5 3-5.625-1.125-7.5-3-3-4.848-3-7.5 1.125-5.625 3-7.5 4.848-3 7.5-3 5.625 1.125 7.5 3 3 4.848 3 7.5zM15 27.5c6.904 0 12.5-5.596 12.5-12.5S21.904 2.5 15 2.5 2.5 8.096 2.5 15 8.096 27.5 15 27.5zm.447-15.773c-1.214.506-3.644 1.553-7.288 3.142-.593.235-.903.465-.93.69-.048.38.428.53 1.077.734l.273.087c.637.207 1.497.45 1.944.46.405.008.856-.158 1.354-.5 3.405-2.3 5.163-3.462 5.273-3.486.079-.018.186-.04.259.025.074.065.066.187.059.221-.048.201-1.918 1.94-2.886 2.839-.286.27-.57.542-.853.816-.593.571-1.038 1 .025 1.7 1.076.71 2.162 1.418 3.212 2.166.518.37.983.7 1.558.649.334-.031.678-.345.854-1.282.415-2.213 1.228-7.01 1.416-8.988a2.37 2.37 0 0 0-.021-.491.525.525 0 0 0-.178-.338c-.15-.122-.381-.147-.484-.146-.47.009-1.191.259-4.662 1.702"/></symbol><symbol viewBox="0 0 26 27" id="viber" xmlns="http://www.w3.org/2000/svg"><path d="M14.719 3.75c-1.781 0-6.188.188-8.531 2.438C4.5 7.78 3.844 10.218 3.75 13.125c-.187 4.594.844 7.5 2.531 9 .375.281 1.313 1.031 3.094 1.594v2.343s0 .938.563 1.125c.093 0 .187.094.28.094.563 0 1.032-.656 1.688-1.312.563-.657 1.031-1.125 1.313-1.594h2.062c1.781 0 6.188-.188 8.531-2.438 1.688-1.687 2.344-4.125 2.344-7.218.094-.469.094-1.031.094-1.594-.094-3.469-1.125-5.813-2.531-7.125-.563-.469-3-2.25-8.25-2.25h-.75zm-.188 1.781h.844c4.969 0 6.844 1.594 7.031 1.782 1.125.937 1.782 3 1.875 5.718v.375c.094.563.094 1.031.094 1.313-.094 2.812-.656 4.687-1.781 5.906-1.969 1.781-6.094 1.875-7.219 1.875h-1.781l-1.5 1.688-.938 1.03-.187.282c-.188.188-.469.563-.656.656v-4.218c-1.875-.47-2.625-1.125-2.813-1.313-1.312-1.125-2.062-3.844-1.875-7.5v-.938c.188-2.25.75-3.75 1.688-4.78C9.28 5.624 13.406 5.53 14.53 5.53zm-.094 2.063a.329.329 0 0 0 0 .656c3.47 0 6.47 2.344 6.47 6.75 0 .469.655.469.655 0 0-4.781-3.187-7.5-7.125-7.406zm-3.715.867a.825.825 0 0 0-.596.163c-.938.469-1.876 1.408-1.595 2.44 0 0 .188.842 1.219 2.623.563.844 1.031 1.594 1.5 2.157.469.656 1.219 1.406 1.969 1.969 1.5 1.218 3.844 2.437 4.875 2.718.937.282 1.968-.656 2.437-1.593a.895.895 0 0 0-.281-1.125c-.563-.563-1.5-1.22-2.156-1.594-.469-.282-1.032-.094-1.219.187l-.469.563c-.187.281-.656.281-.656.281-3.094-.844-3.938-4.031-3.938-4.031s0-.375.282-.656l.562-.47c.281-.187.469-.75.188-1.218-.188-.281-.469-.844-.75-1.125-.281-.375-.844-1.031-.844-1.031a.9.9 0 0 0-.528-.258zm4.372 1.008c-.469-.094-.563.656-.094.656 2.625.188 4.125 1.969 4.031 4.219-.093.469.657.469.657 0 .093-2.625-1.594-4.781-4.594-4.875zm.281 1.781c-.469-.094-.469.656 0 .656 1.125 0 1.688.656 1.688 1.781.093.47.75.47.75 0-.094-1.5-.938-2.437-2.438-2.437z"/></symbol></svg>