<?xml version="1.0" encoding="utf-8"?><svg xmlns="http://www.w3.org/2000/svg" xmlns:xlink="http://www.w3.org/1999/xlink"><symbol viewBox="0 0 51 11" id="arr" xmlns="http://www.w3.org/2000/svg"><path d="M50.53 6.053a.75.75 0 0 0 0-1.06L45.757.22a.75.75 0 0 0-1.06 1.06l4.242 4.243-4.242 4.243a.75.75 0 0 0 1.06 1.06l4.773-4.773zM0 5.523v.75h50v-1.5H0v.75z"/></symbol><symbol viewBox="0 0 27 23" id="arrow-slider" xmlns="http://www.w3.org/2000/svg"><path d="M.94 10.94a1.5 1.5 0 0 0 0 2.12l9.545 9.547a1.5 1.5 0 1 0 2.122-2.122L4.12 12l8.486-8.485a1.5 1.5 0 1 0-2.122-2.122L.94 10.94zM27 10.5H2v3h25v-3z"/></symbol><symbol viewBox="0 0 21 47" id="bdl" xmlns="http://www.w3.org/2000/svg"><path d="M1 1v30.358c0 1.467.654 2.43 1.66 3.34L14.478 45.33c1.056.912 1.559 1.671 3.168 1.671H20.5"/></symbol><symbol viewBox="0 0 28 28" id="facebook" xmlns="http://www.w3.org/2000/svg"><path d="M27.5 15.076C27.5 8.13 21.904 2.5 15 2.5S2.5 8.13 2.5 15.076c0 6.278 4.57 11.48 10.547 12.424v-8.788H9.873v-3.637h3.174v-2.77c0-3.152 1.865-4.893 4.721-4.893 1.367 0 2.799.245 2.799.245v3.095h-1.578c-1.552 0-2.036.97-2.036 1.965v2.359h3.467l-.554 3.635h-2.913V27.5C22.93 26.557 27.5 21.354 27.5 15.076z"/></symbol><symbol viewBox="0 0 45 35" id="home" xmlns="http://www.w3.org/2000/svg"><path fill-rule="evenodd" clip-rule="evenodd" d="M37.18.75C35.352.25 33.125 0 30.5 0h-4.79a6.61 6.61 0 0 0-1.696.232.081.081 0 0 0-.061.078v7.008c0 .088.188.275.267.318l12.65 7.078c.214.12.127.436-.12.436H24.201c-.138 0-.25.11-.25.245v1.726c0 .134.112.244.25.244H45V13.2c0-2.4-.259-4.433-.777-6.1-.518-1.667-1.363-3.017-2.537-4.05-1.14-1.067-2.641-1.833-4.505-2.3zM21.049 15.395a.248.248 0 0 0-.25-.245H8.151c-.248 0-.335-.317-.12-.436l12.89-7.111a.243.243 0 0 0 .126-.212V1.647a.083.083 0 0 0-.124-.071l-.483.267c-.22.122-.434.242-.646.356 0 0-16.415 9.09-17.944 10.208C.29 13.547.01 15.216 0 15.833v1.532h20.797c.139 0 .251-.11.251-.244v-1.726zM7.923 19.827a.248.248 0 0 0-.251-.245H0V21.8c0 2.4.259 4.45.777 6.15.552 1.667 1.398 3.033 2.537 4.1 1.174 1.033 2.676 1.783 4.505 2.25 1.83.467 4.057.7 6.68.7h6.298c.139 0 .251-.11.251-.244v-6.462a.248.248 0 0 0-.25-.244H14.81c-1.346 0-2.468-.1-3.366-.3-.863-.233-1.553-.6-2.071-1.1-.518-.533-.898-1.233-1.14-2.1-.207-.9-.31-2-.31-3.3v-1.423zM24.203 35a.248.248 0 0 1-.251-.244v-6.462c0-.135.112-.244.25-.244h5.988c1.346 0 2.45-.1 3.314-.3.898-.233 1.605-.6 2.123-1.1.518-.533.88-1.233 1.088-2.1.241-.9.362-2 .362-3.3v-1.356c0-.135.112-.244.251-.244H45v2.15c0 2.4-.259 4.45-.777 6.15-.518 1.667-1.363 3.033-2.537 4.1-1.14 1.033-2.641 1.783-4.505 2.25-1.83.467-4.057.7-6.68.7h-6.299z"/></symbol><symbol viewBox="0 0 26 26" id="instagram" xmlns="http://www.w3.org/2000/svg"><path fill-rule="evenodd" clip-rule="evenodd" d="M15 3.75c-3.056 0-3.438.013-4.638.067-1.198.055-2.016.246-2.732.524a5.51 5.51 0 0 0-1.992 1.297A5.518 5.518 0 0 0 4.34 7.63c-.276.716-.468 1.535-.522 2.733-.054 1.199-.068 1.58-.068 4.637 0 3.056.013 3.438.067 4.638.055 1.198.246 2.016.524 2.731a5.51 5.51 0 0 0 1.297 1.993A5.518 5.518 0 0 0 7.63 25.66c.716.277 1.534.468 2.732.523 1.2.054 1.582.067 4.638.067 3.055 0 3.438-.013 4.638-.067 1.198-.055 2.016-.246 2.731-.524a5.51 5.51 0 0 0 1.993-1.297 5.517 5.517 0 0 0 1.298-1.992c.277-.716.468-1.534.523-2.732.054-1.2.067-1.583.067-4.638 0-3.056-.013-3.438-.067-4.638-.055-1.198-.246-2.016-.524-2.732a5.514 5.514 0 0 0-1.297-1.992A5.518 5.518 0 0 0 22.37 4.34c-.716-.276-1.535-.468-2.733-.522-1.199-.054-1.58-.068-4.637-.068zm0 2.027c3.004 0 3.36.011 4.547.066 1.096.05 1.691.232 2.088.387.525.204.9.448 1.294.841.394.394.638.769.84 1.294.155.396.338.992.389 2.088.053 1.187.065 1.543.065 4.547 0 3.004-.011 3.36-.066 4.547-.05 1.096-.232 1.691-.387 2.088-.18.489-.468.931-.841 1.294-.363.373-.805.66-1.294.84-.397.155-.992.338-2.088.389-1.187.053-1.543.065-4.547.065-3.005 0-3.36-.011-4.546-.066-1.097-.05-1.693-.232-2.09-.387a3.485 3.485 0 0 1-1.293-.841 3.486 3.486 0 0 1-.84-1.294c-.155-.397-.338-.992-.388-2.088-.054-1.187-.066-1.543-.066-4.547 0-3.004.011-3.36.066-4.546.05-1.097.232-1.693.387-2.09.204-.524.448-.9.841-1.293.363-.373.805-.66 1.294-.84.396-.155.992-.338 2.088-.388 1.187-.054 1.543-.066 4.547-.066z"/><path fill-rule="evenodd" clip-rule="evenodd" d="M15.001 18.754a3.754 3.754 0 1 1 0-7.508 3.754 3.754 0 0 1 0 7.508zm0-9.536a5.782 5.782 0 1 0 0 11.565 5.782 5.782 0 0 0 0-11.565zm7.465-.105a1.367 1.367 0 1 1-2.733 0 1.367 1.367 0 0 1 2.733 0z"/></symbol><symbol viewBox="0 0 40 40" id="phone" xmlns="http://www.w3.org/2000/svg"><path d="M20 0C8.954 0 0 8.954 0 20s8.954 20 20 20 20-8.954 20-20S31.046 0 20 0zm-7.188 7.944c.413-.024.785.222 1.067.66l2.735 5.185c.288.614.124 1.272-.305 1.712l-1.253 1.252a.613.613 0 0 0-.13.356c.481 1.86 1.938 3.574 3.223 4.754 1.286 1.18 2.667 2.776 4.46 3.154.222.062.494.084.653-.063l1.455-1.482c.502-.381 1.229-.566 1.765-.254h.024l4.934 2.912c.725.454.8 1.332.281 1.866l-3.398 3.371c-.502.515-1.169.688-1.817.689-2.864-.086-5.572-1.492-7.795-2.937-3.65-2.655-6.997-5.948-9.1-9.927-.805-1.668-1.752-3.797-1.662-5.66.008-.7.198-1.386.691-1.838l3.399-3.398c.264-.225.526-.337.774-.352z"/><path d="M12.813 7.944c.412-.024.784.222 1.066.66l2.735 5.185c.288.614.124 1.272-.305 1.712l-1.253 1.252a.613.613 0 0 0-.13.356c.481 1.86 1.938 3.574 3.223 4.754 1.286 1.18 2.667 2.776 4.46 3.154.222.062.494.084.653-.063l1.455-1.482c.502-.381 1.229-.566 1.765-.254h.024l4.934 2.912c.725.454.8 1.332.281 1.866l-3.398 3.371c-.502.515-1.169.688-1.817.689-2.864-.086-5.572-1.492-7.795-2.937-3.65-2.655-6.997-5.948-9.1-9.927-.805-1.668-1.752-3.797-1.662-5.66.008-.7.198-1.386.691-1.838l3.399-3.398c.264-.225.526-.337.774-.352z"/></symbol></svg>