<svg width="256" height="190" viewBox="0 0 256 190" fill="none" xmlns="http://www.w3.org/2000/svg">
<path opacity="0.05" fill-rule="evenodd" clip-rule="evenodd" d="M256 166.308C256 164.686 254.634 163.372 252.948 163.372H99.1476C96.1336 163.372 95.0725 159.557 97.6894 158.129L254.453 72.6079C255.409 72.0864 256 71.1107 256 70.0534V0.979087C256 0.231295 255.164 -0.23999 254.487 0.127349C252.505 1.20268 250.547 2.27882 248.612 3.34221C245.948 4.8061 243.328 6.2458 240.752 7.62592C240.752 7.62592 41.1041 116.943 22.511 130.384C3.54639 144.095 0.116941 164.16 3.37281e-06 171.584L0 190H105.696H252.948C254.634 190 256 188.685 256 187.064V166.308Z" fill="#F6F6F6"/>
</svg>
